<svg width="400" height="100"
     xmlns="http://www.w3.org/2000/svg">
    <style>
        .line {
        stroke-width: 6px;
        stroke-linecap: round;
        stroke-dasharray: 6px 200px;
        stroke-dashoffset: 206px;
        stroke: #f4f6f780;
        animation: draw 6s linear infinite;
        }
        .speed2 {
        stroke-width: 8px;
        stroke-dasharray: 8px 200px;
        stroke-dashoffset: 208px;
        stroke: #f4f6f7dd;
        animation: draw 3s linear infinite;
        }
        .theOne {
            stroke: salmon
        }

        @keyframes draw {
            to {
                stroke-dashoffset: 0px;
            }
        }
    </style>

    <line class="line speed1 darkYellow" x1="80" y1="257" x2="80" y2="-143"/>
    <line class="line speed1" x1="110" y2="-175" x2="110" y1="225"/>
    <line class="line speed1" x1="88" y2="-72" x2="88" y1="328"/>
    <line class="line speed1 darkYellow" x1="143" y2="-94" x2="143" y1="306"/>
    <line class="line speed1" x1="384" y2="-186" x2="384" y1="214"/>
    <line class="line speed1" x1="377" y2="-31" x2="377" y1="369"/>
    <line class="line speed1" x1="139" y2="-105" x2="139" y1="295"/>
    <line class="line speed1" x1="83" y2="-88" x2="83" y1="312"/>
    <line class="line speed1 yellow" x1="277" y2="-167" x2="277" y1="233"/>
    <line class="line speed1" x1="91" y2="-174" x2="91" y1="226"/>
    <line class="line speed2" x1="322" y2="-46" x2="322" y1="354"/>
    <line class="line speed2" x1="435" y2="-163" x2="435" y1="237"/>
    <line class="line speed2" x1="41" y2="-127" x2="41" y1="273"/>
    <line class="line speed2" x1="240" y2="-157" x2="240" y1="243"/>
    <line class="line speed2" x1="59" y2="-46" x2="59" y1="354"/>
    <line class="line speed2" x1="253" y2="-95" x2="253" y1="305"/>
    <line class="line speed2" x1="33" y2="-18" x2="33" y1="382"/>
    <line class="line speed2" x1="39" y2="-97" x2="39" y1="303"/>
    <line class="line speed2" x1="191" y2="-85" x2="191" y1="315"/>
    <line class="line speed2" x1="397" y2="-76" x2="397" y1="324"/>
</svg>